<svg id="Layer_1" data-name="Layer 1" xmlns="http://www.w3.org/2000/svg" viewBox="0 0 149.94 149.94">
  <title>instagram</title>
  <path d="M426.21,398.05a45.33,45.33,0,1,1-89.81-8.72H305.91v60.25A23.43,23.43,0,0,0,329.34,473H432.42a23.43,23.43,0,0,0,23.43-23.44V389.33H425.37A45.48,45.48,0,0,1,426.21,398.05Zm6.21-75H329.34a23.43,23.43,0,0,0-23.43,23.43v25.38h38a45.32,45.32,0,0,1,74,0h38V346.51A23.43,23.43,0,0,0,432.42,323.08ZM443.88,352a4.19,4.19,0,0,1-4.18,4.19H427.15A4.2,4.2,0,0,1,423,352V339.47a4.2,4.2,0,0,1,4.18-4.19H439.7a4.19,4.19,0,0,1,4.18,4.19Zm-35.1,46a27.9,27.9,0,1,0-27.9,27.89A27.9,27.9,0,0,0,408.78,398.05Z" transform="translate(-305.91 -323.08)" style="fill: #FFFFFF"/>
</svg>
