<svg id="Layer_1" data-name="Layer 1" xmlns="http://www.w3.org/2000/svg" viewBox="0 0 149.94 149.94">
  <title>twitter</title>
  <path d="M664.75,319.17h-100a25.07,25.07,0,0,0-25,25v100a25.06,25.06,0,0,0,25,25h100a25.06,25.06,0,0,0,25-25v-100A25.06,25.06,0,0,0,664.75,319.17Zm-2.24,50.05c0,1.08.08,2.16.08,3.25,0,33.12-24.78,71.32-70.09,71.32a68.77,68.77,0,0,1-37.76-11.27,47.32,47.32,0,0,0,5.87.36,48.9,48.9,0,0,0,30.59-10.73,24.74,24.74,0,0,1-23-17.41,24.28,24.28,0,0,0,11.13-.43,25,25,0,0,1-19.76-24.58v-.32a24.18,24.18,0,0,0,11.16,3.14,25.4,25.4,0,0,1-7.63-33.47,69.51,69.51,0,0,0,50.78,26.19,25.56,25.56,0,0,1-.64-5.71,24.85,24.85,0,0,1,24.63-25.06,24.39,24.39,0,0,1,18,7.91,48.73,48.73,0,0,0,15.65-6.08,25.14,25.14,0,0,1-10.83,13.87,48.74,48.74,0,0,0,14.14-3.95A50.24,50.24,0,0,1,662.51,369.22Z" transform="translate(-539.8 -319.17)" style="fill: #FFFFFF"/>
</svg>
